<?xml version="1.0" encoding="UTF-8" standalone="no"?>
<!-- Created with Inkscape (http://www.inkscape.org/) -->

<svg
   xmlns:dc="http://purl.org/dc/elements/1.1/"
   xmlns:cc="http://creativecommons.org/ns#"
   xmlns:rdf="http://www.w3.org/1999/02/22-rdf-syntax-ns#"
   xmlns:svg="http://www.w3.org/2000/svg"
   xmlns="http://www.w3.org/2000/svg"
   xmlns:sodipodi="http://sodipodi.sourceforge.net/DTD/sodipodi-0.dtd"
   xmlns:inkscape="http://www.inkscape.org/namespaces/inkscape"
   width="210mm"
   height="297mm"
   viewBox="0 0 210 297"
   version="1.1"
   id="svg1046"
   inkscape:version="0.92.3 (2405546, 2018-03-11)"
   sodipodi:docname="log.svg">
  <defs
     id="defs1040">
    <clipPath
       clipPathUnits="userSpaceOnUse"
       id="clipPath1061">
      <rect
         style="opacity:1;vector-effect:none;fill:none;fill-opacity:1;stroke:#808000;stroke-width:0.35110208;stroke-linecap:butt;stroke-linejoin:miter;stroke-miterlimit:4;stroke-dasharray:none;stroke-dashoffset:0;stroke-opacity:1"
         id="rect1063"
         width="17.973877"
         height="12.361216"
         x="-196.71037"
         y="0.19718926" />
    </clipPath>
  </defs>
  <sodipodi:namedview
     id="base"
     pagecolor="#ffffff"
     bordercolor="#666666"
     borderopacity="1.0"
     inkscape:pageopacity="0.0"
     inkscape:pageshadow="2"
     inkscape:zoom="5.6"
     inkscape:cx="-707.59755"
     inkscape:cy="1106.8349"
     inkscape:document-units="mm"
     inkscape:current-layer="layer1"
     showgrid="false"
     inkscape:window-width="1440"
     inkscape:window-height="835"
     inkscape:window-x="1366"
     inkscape:window-y="0"
     inkscape:window-maximized="1" />
  <metadata
     id="metadata1043">
    <rdf:RDF>
      <cc:Work
         rdf:about="">
        <dc:format>image/svg+xml</dc:format>
        <dc:type
           rdf:resource="http://purl.org/dc/dcmitype/StillImage" />
        <dc:title></dc:title>
      </cc:Work>
    </rdf:RDF>
  </metadata>
  <g
     inkscape:label="Camada 1"
     inkscape:groupmode="layer"
     id="layer1">
    <path
       style="opacity:1;vector-effect:none;fill:#ffffff;fill-opacity:1;stroke:none;stroke-width:0.02216667;stroke-linecap:butt;stroke-linejoin:miter;stroke-miterlimit:4;stroke-dasharray:none;stroke-dashoffset:0;stroke-opacity:1"
       d="m -185.82289,13.692573 c -0.53073,-0.02177 -0.98446,-0.07128 -1.62032,-0.176841 -2.4861,-0.412713 -4.11307,-1.191145 -4.60225,-2.201974 -0.12785,-0.264195 -0.15022,-0.371865 -0.14955,-0.719717 5.3e-4,-0.257854 0.006,-0.320302 0.0379,-0.438457 0.17962,-0.6625639 0.60552,-1.3093179 1.35591,-2.0590234 0.34739,-0.3470717 0.86298,-0.7948591 1.31168,-1.139182 l 0.11693,-0.08973 0.0167,-0.5565034 0.0167,-0.5565034 0.74335,-0.7590819 0.74334,-0.7590819 0.004,0.6856579 c 0.002,0.3771119 0.008,0.6856582 0.0127,0.6856582 0.005,0 0.41446,-0.3345934 0.9108,-0.7435409 0.49632,-0.4089471 0.90811,-0.7453309 0.91508,-0.7475193 0.0129,-0.00406 4.70028,3.9820749 4.69214,3.9902103 -0.002,0.00246 -0.8462,-0.3075175 -1.87498,-0.6888387 -1.02878,-0.3813212 -2.20126,-0.8158406 -2.6055,-0.9655985 l -0.73499,-0.2722869 -0.005,0.1689804 c -0.005,0.1720363 0.10977,6.9613945 0.11756,6.9691805 0.0106,0.0106 1.58812,0.1238 1.5973,0.114617 0.006,-0.0057 0.032,-1.161696 0.0585,-2.5689 0.0265,-1.4072039 0.0496,-2.5604049 0.0514,-2.5626692 0.002,-0.003 1.76252,0.7626233 1.77288,0.7711703 8e-4,7.41e-4 -0.0297,0.877071 -0.0679,1.9474029 -0.0383,1.07033 -0.0677,1.948661 -0.0654,1.951845 0.002,0.0032 0.31848,-0.110932 0.70269,-0.253592 0.38422,-0.14266 1.02467,-0.380437 1.42323,-0.528395 0.39856,-0.147957 0.72786,-0.26581 0.73177,-0.261895 0.0127,0.01267 -0.38193,0.341947 -0.57453,0.479422 -1.27491,0.909996 -3.06088,1.366055 -5.03292,1.285186 z m -4.03174,-1.79977 c -0.006,-0.25495 -0.0144,-1.091211 -0.0192,-1.858358 -0.005,-0.7671469 -0.0132,-1.4948936 -0.0186,-1.6172147 l -0.01,-0.2224019 -0.86647,1.1578457 c -0.47656,0.636815 -0.86477,1.1680069 -0.86268,1.1804269 0.004,0.02585 1.75,1.820338 1.77251,1.822095 0.008,6.62e-4 0.0103,-0.196753 0.004,-0.462393 z m 1.98964,-1.198982 0.68905,-0.164352 V 9.0792441 c 0,-0.976183 -0.006,-1.4502247 -0.0171,-1.4502247 -0.0181,0 -2.00385,1.0460058 -2.02484,1.0665973 -0.0115,0.011303 -0.0626,1.7691273 -0.0628,2.1589853 l -6e-5,0.17704 0.36332,-0.08674 c 0.19982,-0.0477 0.67339,-0.160693 1.05237,-0.251086 z"
       id="path1075"
       inkscape:connector-curvature="0" />
  </g>
</svg>
